#!OML:ASF F:\VICON\USERDATA\INSTALL\rory3\rory3.ASF
:FULLY-SPECIFIED
:DEGREES
36
root 0.3575807453765804 17.867515412872628 -1.5357308488672405 -0.5967106813294358 3.8275215138483003 2.403143608447721
lfemur 16.158590959434324 -6.129319426290847 -25.68072820576672
ltibia 21.949028989501286
lfoot -8.428312365817053 -5.139043007818643
ltoes -16.744218199360088
rfemur -25.791256054229848 4.7400156344586595 19.095484806780192
rtibia 25.539418712419966
rfoot -4.910956728082276 -8.7166445075507
rtoes -3.7491550224018284
lowerback 9.141158964601717 -1.4246085821621262 -4.196007294933218
upperback 0.4088125166126774 -2.3122675945457276 1.57754659142195
thorax -4.562009979153806 -1.0309604958155794 4.171960475804348
lowerneck -17.24968260573954 -2.802201523520342 -2.579188928625861
upperneck 21.37471876267755 -3.5706803174822563 1.187573935701533
head 9.555470120192222 -1.7058816797128837 0.2923971769503404
lclavicle -1.9532406168652577e-15 9.067692339059806e-16
lhumerus -21.94466293570447 -4.363114746516126 83.41903251070816
lradius 31.344057047017795
lwrist 7.513627203286285
lhand -28.83137114905923 22.093976798216225
lfingers 7.12502
lthumb -1.8725783022876041 52.801760869519576
rclavicle -1.953240617072505e-15 9.067692337156184e-16
rhumerus -34.25290968915615 -29.685700822470807 -72.55773759972564
rradius 20.12834111870717
rwrist 13.20081950879511
rhand -17.971197861919673 23.07307159045083
rfingers 7.12502
rthumb 8.177389625817222 -7.000790422577963
37
root 0.2885020134201728 17.963279591027828 -1.1638685247141218 -1.0747100748416705 2.9340377942474993 -0.08608800869823874
lfemur 13.46920968551629 -6.014319267658452 -22.983474529222384
ltibia 29.583576388212897
lfoot -2.9577114604223764 -7.812874445265522
ltoes -18.15223047419688
rfemur -23.88140238564013 4.8031482073165455 21.920768151342976
rtibia 26.784197508639924
rfoot -4.856797317210858 -5.072960158861128
rtoes 0.20074580458701297
lowerback 9.000536873944212 -1.3672877630942115 -1.677029630406316
upperback 0.29289295115483144 -1.9554621576830296 2.138290197051554
thorax -4.681527050603873 -0.9079883922158976 3.467924144100206
lowerneck -17.039835343316874 -2.7275370224119544 -2.3771841622586036
upperneck 21.423243413198357 -3.435300116962113 0.9736140683383496
head 9.602052610830984 -1.6609028796114158 0.23228775195070084
lclavicle -1.953240616858685e-15 9.067692339105e-16
lhumerus -23.02913832362401 -3.5242914449629286 83.74173129714835
lradius 30.65665492208839
lwrist 7.604488889233778
lhand -29.053623743195786 21.34555023016837
lfingers 7.12502
lthumb -2.1717499552064816 51.928868697933964
rclavicle -1.9532406170788406e-15 9.067692337083766e-16
rhumerus -34.40233931785168 -29.634201465170705 -72.42798472709845
rradius 19.789662795388868
rwrist 13.49589757366925
rhand -17.847337745950657 22.522723244421066
rfingers 7.12502
rthumb 8.32949160849501 -7.576787694523006
38
root 0.21862198079637055 18.01286914911881 -0.1459518744749193 -1.7310109684798554 1.6732047543733097 -1.6375021518381492
lfemur 8.190285482519656 -4.735351980853993 -20.457176219103403
ltibia 39.980484329510816
lfoot 4.8961962377049035 -12.099283622650093
ltoes -14.995762489132524
rfemur -21.123253019710084 4.684866636896833 24.685465041004385
rtibia 27.87019070523433
rfoot -6.474927786287177 -3.498752819821828
rtoes 3.8541144235365414
lowerback 9.034497660093596 -1.1387297405032508 0.09020025508221075
upperback 0.2802388154054224 -1.4580384832368551 2.528646149906026
thorax -4.741597067320088 -0.7076843600466414 2.6838170489349817
lowerneck -16.936701081027763 -2.668673428723239 -2.2543201328852156
upperneck 21.378602327374 -3.301970307314686 0.8283099634237377
head 9.590399203167948 -1.6195655983891852 0.20432480083247218
lclavicle -1.9532406168521267e-15 9.06769233915296e-16
lhumerus -24.42172644471651 -3.200957654647498 84.12270815953862
lradius 30.06399644725069
lwrist 7.46436735189556
lhand -27.504038342244755 23.993870163824308
lfingers 7.12502
lthumb -0.7134455393092398 54.38560414287011
rclavicle -1.9532406170795084e-15 9.067692337064597e-16
rhumerus -33.83581983174088 -28.6698965693539 -73.1032142364975
rradius 19.683949447880583
rwrist 13.292883543584425
rhand -17.639199323595893 22.113344873825277
rfingers 7.12502
rthumb 8.53868545484026 -7.987267304609018
39
root 0.132675366900332 18.09803397968492 1.0449152862717792 -2.4037061717224035 1.0469536337995442 -3.0317808461962583
lfemur 2.0377326060122574 -3.4019323452749735 -17.61284581645598
ltibia 51.204273282808124
lfoot 11.927503224859244 -15.432625946987027
ltoes -7.488271753594452
rfemur -18.11428164593903 5.167192674565836 27.116265328861623
rtibia 27.815451889371985
rfoot -7.637965341026958 -4.0497201645526335
rtoes 5.3935771318177235
lowerback 9.330909401933436 -0.9340970625490762 1.300736173342975
upperback 0.27033061580038986 -1.0086425641668781 2.8375584550720907
thorax -4.8624450490573174 -0.5190938634459874 2.216597231761644
lowerneck -16.949775638964496 -2.657283788049946 -2.122803999415768
upperneck 21.257101527779508 -3.279575243784421 0.6926162808279683
head 9.5465268555731 -1.6198626316230729 0.15433480861457757
lclavicle -1.953240616850106e-15 9.0676923391631e-16
lhumerus -25.853856135597685 -3.0252464535326746 84.57849583637741
lradius 29.648628376472583
lwrist 7.0373878243740675
lhand -26.406109865123057 25.596120228310227
lfingers 7.12502
lthumb 0.2804939432687976 55.89717914366844
rclavicle -1.953240617088037e-15 9.067692336976262e-16
rhumerus -32.59558412819434 -26.602244292649317 -74.57833454009192
rradius 19.82896755748711
rwrist 13.018042188830627
rhand -17.47632965955007 21.469363949900046
rfingers 7.12502
rthumb 8.75394843583201 -8.468729578882565
40
root 0.06345932918547226 18.214331378262333 2.401321500772264 -2.9722477413891104 1.0191953577796142 -4.107199368087722
lfemur -4.54843171636068 -2.036291396913139 -15.432777768050514
ltibia 61.06748219494271
lfoot 13.473268355346118 -15.249399442779534
ltoes 2.299654018184326
rfemur -15.3275428663617 5.5524487934647455 28.99538676606471
rtibia 27.42640002499286
rfoot -8.954225377303727 -4.659008052419293
rtoes 5.8101784959656
lowerback 9.619106969402315 -0.6714155951569184 2.182218895462339
upperback 0.2996808642510036 -0.6499698623513961 2.853533775043866
thorax -4.924334852252992 -0.33550605563623126 1.7871850786791974
lowerneck -16.769973052495192 -2.6726112084063467 -2.0917271997116202
upperneck 21.163421217761698 -3.3399887339449466 0.7841082652993527
head 9.51462429104798 -1.6356407387705632 0.17373419134669615
lclavicle -1.953240616843955e-15 9.067692339209527e-16
lhumerus -27.284450479843215 -2.7813601883289047 84.87166026233054
lradius 29.01795551799384
lwrist 6.390403047987109
lhand -27.120805077132985 24.461480924367272
lfingers 7.12502
lthumb -0.4972497525313752 54.68829865914494
rclavicle -1.953240617086043e-15 9.067692336984137e-16
rhumerus -31.250650191631493 -24.700387079039352 -75.962077420436
rradius 19.993430030752332
rwrist 12.699447229767802
rhand -17.273084116178534 21.300968595252723
rfingers 7.12502
rthumb 8.97233562590711 -8.415415529307719
41
root 0.00772453602868356 18.253791393612023 3.4398155116672617 -3.429510088150745 0.5096785041968381 -4.432441316057163
lfemur -9.912521805496368 0.21106354652701098 -14.440534957252746
ltibia 67.36584470693847
lfoot 9.690215727695097 -14.367012800180323
ltoes 1.2057224170352607
rfemur -12.512584318714705 5.8835814625963385 29.696990809822744
rtibia 27.507894442569714
rfoot -11.027146613286575 -4.9386060024838265
rtoes 5.88020576483586
lowerback 9.710341090959599 -0.27203772351981015 2.4405749291479166
upperback 0.3969961298770447 -0.1126755904393415 2.6995780779730936
thorax -4.905617819091939 -0.08709853136002399 1.3816116614040859
lowerneck -16.84708557410079 -2.722332372206037 -2.004244362886765
upperneck 21.20685265807566 -3.41639417866777 0.744744318609605
head 9.538528984024767 -1.6658497795784821 0.14022668047456346
lclavicle -1.953240616837039e-15 9.06769233926666e-16
lhumerus -28.577931240045235 -2.33655750390741 85.02066140659753
lradius 28.353221270877878
lwrist 5.829942927917568
lhand -26.46704464281554 25.335191077258163
lfingers 7.12502
lthumb 0.27651056650106864 55.73004598591787
rclavicle -1.9532406170885937e-15 9.067692336953983e-16
rhumerus -29.94398235256481 -22.396742054532385 -77.37260365013202
rradius 20.73057677227388
rwrist 11.55732279615845
rhand -17.210069804080614 21.63591718428782
rfingers 7.12502
rthumb 9.03588660357195 -7.878423095903993
42
root -0.03344169720830392 18.271694453656522 4.327277391072448 -3.7073129347385327 -0.03521001110693156 -4.733844042242679
lfemur -14.511313152135106 2.353104753983709 -14.212985880200815
ltibia 70.28355350757147
lfoot 3.2653184835371176 -11.490934597111611
ltoes -2.7925720073690448
rfemur -9.612517217194618 6.319400126469106 30.447668974328582
rtibia 27.328408346285244
rfoot -12.923764804912523 -5.078742749109162
rtoes 5.889423665720116
lowerback 9.67027344870713 0.14248416444953438 2.8354227956709326
upperback 0.4896915653862539 0.4747052521632589 2.5383125435353815
thorax -4.855107662685085 0.17880415690583829 0.9001995270716225
lowerneck -16.689161442998685 -2.7222315179324745 -1.844089339918871
upperneck 21.13904075930725 -3.4309443867187994 0.6416467972091534
head 9.503597100322168 -1.6733309585863452 0.07803575440955587
lclavicle -1.9532406168330797e-15 9.067692339295371e-16
lhumerus -29.822203580029676 -1.7506631128723449 85.15650162962025
lradius 27.918996438971064
lwrist 5.330409874498938
lhand -25.81400525630087 25.837912199883785
lfingers 7.12502
lthumb 0.8848664854423443 56.255795722820714
rclavicle -1.9532406170917318e-15 9.06769233691989e-16
rhumerus -28.723824991074814 -19.63356602495878 -78.67072573673585
rradius 21.8688677779707
rwrist 9.865307543688763
rhand -17.319933898391614 21.746069490299316
rfingers 7.12502
rthumb 8.949627938213883 -7.721912795777961
